<svg width="60" height="60" viewBox="0 0 60 60" fill="none" xmlns="http://www.w3.org/2000/svg">
<path d="M29.9863 47.5777C20.3009 47.5703 12.4219 39.6849 12.4219 30C12.4219 20.3073 20.3073 12.4219 30 12.4219C39.6895 12.4219 47.5735 20.3027 47.5781 29.9913C47.5781 29.9995 47.5777 30.0087 47.5777 30.0151C47.5777 30.6619 48.1027 31.187 48.7495 31.187H58.8277C59.4708 31.187 59.9927 30.6693 59.9995 30.0279C60 30.0188 60 30.0073 60 30C60 21.9868 56.8794 14.453 51.2132 8.78677C45.547 3.12057 38.0132 0 30 0C23.8921 0 18.0148 1.82465 13.0032 5.27618C12.4699 5.64331 12.3358 6.37299 12.7029 6.90582C13.0701 7.43912 13.7997 7.5737 14.3326 7.20612C18.9514 4.02512 24.369 2.34375 30 2.34375C37.2043 2.34375 43.7741 5.11276 48.7006 9.64188L43.2266 15.1158C39.706 11.9843 35.0716 10.0781 30 10.0781C19.4032 10.0781 10.714 18.3943 10.1125 28.8432H2.36847C2.5827 23.6288 4.24393 18.6342 7.20612 14.3326C7.5737 13.7997 7.43912 13.0701 6.90582 12.7029C6.37299 12.3358 5.64331 12.4699 5.27618 13.0032C1.82419 18.0148 0 23.8925 0 30C0 38.0104 3.11874 45.5424 8.78174 51.2082C14.4447 56.8735 21.9745 59.9959 29.9844 59.9995H29.9854C30.2957 59.9995 30.5937 59.8764 30.8134 59.6567C31.0336 59.437 31.1572 59.1389 31.1572 58.8277V48.7495C31.1568 48.1027 30.6326 47.5786 29.9863 47.5777ZM49.8889 28.8432C49.623 24.2249 47.7763 20.024 44.8842 16.7734L50.3572 11.3004C54.6428 15.9618 57.3532 22.0935 57.6324 28.8428H49.8889V28.8432ZM28.813 57.6311C14.5065 57.0241 2.97775 45.4916 2.37076 31.187H10.1143C10.7076 41.2253 18.7729 49.2934 28.813 49.8866V57.6311Z" fill="white"/>
<path d="M58.8281 35.8594H51.3281C50.6808 35.8594 50.1562 36.384 50.1562 37.0312V42.8906H43.8281C43.1808 42.8906 42.6562 43.4152 42.6562 44.0625V50.1558H36.3281C35.6808 50.1558 35.1562 50.6808 35.1562 51.3277V58.8277C35.1562 59.4749 35.6808 59.9995 36.3281 59.9995H58.8281C59.4754 59.9995 60 59.4749 60 58.8277V37.0312C60 36.384 59.4754 35.8594 58.8281 35.8594ZM37.5 52.4995H42.6562V57.6558H37.5V52.4995ZM45 51.3277V45.2344H50.1562V57.6558H45V51.3277ZM57.6562 57.6558H52.5V38.2031H57.6562V57.6558Z" fill="white"/>
<path d="M9.61533 10.7871C9.9234 10.7871 10.226 10.6617 10.4439 10.4433C10.6618 10.2254 10.7872 9.92422 10.7872 9.61523C10.7872 9.3067 10.6618 9.00458 10.4439 8.78668C10.226 8.56833 9.9234 8.44336 9.61533 8.44336C9.30725 8.44336 9.00467 8.56833 8.78677 8.78668C8.56888 9.00458 8.44345 9.3067 8.44345 9.61523C8.44345 9.92422 8.56888 10.2254 8.78677 10.4433C9.00467 10.6617 9.30725 10.7871 9.61533 10.7871Z" fill="white"/>
</svg>
