<svg width="60" height="52" viewBox="0 0 60 52" fill="none" xmlns="http://www.w3.org/2000/svg">
<path d="M54.658 28.9369C54.5293 28.9165 54.3978 28.9213 54.2709 28.9509C54.1441 28.9805 54.0244 29.0343 53.9188 29.1093C53.8132 29.1843 53.7236 29.2791 53.6552 29.3881C53.5868 29.4971 53.541 29.6183 53.5203 29.7447C52.6134 35.23 49.7492 40.2195 45.44 43.8205C41.1308 47.4216 35.6578 49.3992 30 49.3997C17.7186 49.3997 7.57859 40.2241 6.31098 28.4859L8.45249 30.5894C8.54467 30.6799 8.6541 30.7517 8.77454 30.8007C8.89498 30.8497 9.02406 30.875 9.15442 30.875C9.28478 30.875 9.41386 30.8497 9.5343 30.8007C9.65473 30.7517 9.76416 30.6799 9.85634 30.5894C9.94852 30.4988 10.0216 30.3914 10.0715 30.2731C10.1214 30.1548 10.1471 30.028 10.1471 29.8999C10.1471 29.7719 10.1214 29.6451 10.0715 29.5268C10.0216 29.4085 9.94852 29.301 9.85634 29.2105L5.88576 25.3105C5.79358 25.2199 5.68415 25.1481 5.56371 25.0991C5.44327 25.0501 5.31419 25.0249 5.18383 25.0249C5.05347 25.0249 4.92439 25.0501 4.80395 25.0991C4.68351 25.1481 4.57408 25.2199 4.4819 25.3105L0.511317 29.2105C0.325154 29.3933 0.22057 29.6413 0.22057 29.8999C0.22057 30.1585 0.325154 30.4065 0.511317 30.5894C0.697479 30.7722 0.949969 30.875 1.21324 30.875C1.47652 30.875 1.72901 30.7722 1.91517 30.5894L4.29429 28.2526C5.45879 41.179 16.5419 51.3497 30 51.3497C36.1297 51.3493 42.0592 49.2066 46.7276 45.305C51.396 41.4033 54.4986 35.9974 55.4804 30.0545C55.5011 29.9281 55.4963 29.7989 55.4662 29.6743C55.436 29.5497 55.3812 29.4321 55.3049 29.3284C55.2285 29.2246 55.1321 29.1366 55.0211 29.0694C54.9101 29.0023 54.7867 28.9572 54.658 28.9369Z" fill="white"/>
<path d="M59.4887 21.4105C59.3965 21.3199 59.2871 21.2481 59.1666 21.1991C59.0462 21.1501 58.9171 21.1249 58.7868 21.1249C58.6564 21.1249 58.5273 21.1501 58.4069 21.1991C58.2864 21.2481 58.177 21.3199 58.0848 21.4105L55.7057 23.7473C54.5412 10.8206 43.4581 0.649902 30 0.649902C23.8704 0.650289 17.9409 2.79299 13.2725 6.69461C8.60408 10.5962 5.50145 16.0022 4.51974 21.9451C4.47795 22.2005 4.54114 22.4617 4.69542 22.6713C4.84969 22.8809 5.08242 23.0217 5.34239 23.0627C5.60237 23.1038 5.8683 23.0417 6.08168 22.8902C6.29507 22.7386 6.43842 22.51 6.48022 22.2547C7.38705 16.7694 10.2512 11.7801 14.5603 8.17906C18.8694 4.57807 24.3423 2.60042 30 2.5999C42.2814 2.5999 52.4214 11.7755 53.689 23.5137L51.5475 21.4102C51.3613 21.2274 51.1089 21.1246 50.8456 21.1246C50.5823 21.1246 50.3298 21.2274 50.1437 21.4102C49.9575 21.5931 49.8529 21.8411 49.8529 22.0997C49.8529 22.3583 49.9575 22.6063 50.1437 22.7891L54.1142 26.6891C54.2064 26.7796 54.3159 26.8515 54.4363 26.9005C54.5567 26.9495 54.6858 26.9747 54.8162 26.9747C54.9465 26.9747 55.0756 26.9495 55.1961 26.9005C55.3165 26.8515 55.4259 26.7796 55.5181 26.6891L59.4887 22.7891C59.6748 22.6063 59.7793 22.3583 59.7793 22.0998C59.7793 21.8412 59.6748 21.5933 59.4887 21.4105Z" fill="white"/>
<path d="M30 43.5502C39.852 43.5502 47.8676 35.6771 47.8676 26.0002C47.8676 16.3233 39.852 8.4502 30 8.4502C20.148 8.4502 12.1324 16.3233 12.1324 26.0002C12.1324 35.6771 20.148 43.5502 30 43.5502ZM15.1103 25.0252H14.1495C14.3678 21.5671 15.7566 18.2798 18.0953 15.686L18.7694 16.3482C18.9567 16.5258 19.2075 16.624 19.4677 16.6217C19.728 16.6195 19.9769 16.5169 20.1609 16.3361C20.345 16.1553 20.4493 15.9107 20.4515 15.6551C20.4537 15.3994 20.3536 15.1531 20.1728 14.9693L19.4987 14.3071C22.1396 12.0099 25.4865 10.6458 29.0074 10.4315V11.3752C29.0074 11.6338 29.1119 11.8818 29.2981 12.0646C29.4842 12.2475 29.7367 12.3502 30 12.3502C30.2633 12.3502 30.5158 12.2475 30.7019 12.0646C30.8881 11.8818 30.9926 11.6338 30.9926 11.3752V10.4315C34.5134 10.6459 37.8601 12.01 40.5008 14.3071L39.8272 14.9693C39.7309 15.0589 39.6538 15.1665 39.6006 15.2858C39.5473 15.4051 39.5189 15.5337 39.5171 15.664C39.5153 15.7942 39.5401 15.9235 39.59 16.0442C39.6399 16.1649 39.714 16.2746 39.8077 16.3667C39.9015 16.4588 40.0131 16.5315 40.136 16.5806C40.2589 16.6296 40.3905 16.654 40.5232 16.6522C40.6558 16.6504 40.7867 16.6226 40.9082 16.5703C41.0297 16.518 41.1392 16.4423 41.2304 16.3477L41.9046 15.6855C44.2434 18.2794 45.6323 21.5669 45.8505 25.0252H44.8897C44.6264 25.0252 44.374 25.1279 44.1878 25.3108C44.0016 25.4936 43.8971 25.7416 43.8971 26.0002C43.8971 26.2588 44.0016 26.5068 44.1878 26.6896C44.374 26.8725 44.6264 26.9752 44.8897 26.9752H45.8505C45.6323 30.4333 44.2434 33.7206 41.9047 36.3144L41.2306 35.6522C41.139 35.5591 41.0294 35.4848 40.9083 35.4338C40.7872 35.3827 40.6569 35.3558 40.5251 35.3547C40.3933 35.3536 40.2626 35.3783 40.1406 35.4273C40.0187 35.4764 39.9078 35.5488 39.8146 35.6404C39.7215 35.7319 39.6478 35.8408 39.5979 35.9606C39.548 36.0805 39.5229 36.2089 39.5241 36.3383C39.5252 36.4678 39.5527 36.5957 39.6047 36.7147C39.6567 36.8336 39.7324 36.9412 39.8272 37.0311L40.5013 37.6931C37.8605 39.9904 34.5135 41.3546 30.9926 41.5689V40.6252C30.9926 40.3666 30.8881 40.1186 30.7019 39.9358C30.5158 39.7529 30.2633 39.6502 30 39.6502C29.7367 39.6502 29.4842 39.7529 29.2981 39.9358C29.1119 40.1186 29.0074 40.3666 29.0074 40.6252V41.5689C25.4866 41.3545 22.1399 39.9903 19.4992 37.6932L20.1733 37.0311C20.3541 36.8472 20.4541 36.6009 20.4518 36.3452C20.4495 36.0896 20.345 35.8451 20.161 35.6643C19.9769 35.4836 19.7279 35.3811 19.4676 35.3789C19.2074 35.3767 18.9566 35.4751 18.7694 35.6527L18.0953 36.3148C15.7565 33.7209 14.3677 30.4335 14.1495 26.9752H15.1103C15.3736 26.9752 15.626 26.8725 15.8122 26.6896C15.9984 26.5068 16.1029 26.2588 16.1029 26.0002C16.1029 25.7416 15.9984 25.4936 15.8122 25.3108C15.626 25.1279 15.3736 25.0252 15.1103 25.0252Z" fill="white"/>
<path d="M30 28.9251C30.6156 28.9243 31.2159 28.7365 31.7185 28.3873C32.2211 28.0382 32.6014 27.5449 32.8072 26.9751H39.8272C40.0905 26.9751 40.343 26.8723 40.5291 26.6895C40.7153 26.5066 40.8199 26.2586 40.8199 26.0001C40.8199 25.7415 40.7153 25.4935 40.5291 25.3106C40.343 25.1278 40.0905 25.0251 39.8272 25.0251H32.8072C32.6583 24.6144 32.4182 24.2414 32.1043 23.9331C31.7905 23.6249 31.4108 23.3891 30.9927 23.2428V17.727C30.9927 17.4684 30.8881 17.2204 30.7019 17.0375C30.5158 16.8547 30.2633 16.752 30 16.752C29.7367 16.752 29.4843 16.8547 29.2981 17.0375C29.1119 17.2204 29.0074 17.4684 29.0074 17.727V23.2428C28.3453 23.473 27.7875 23.9256 27.4323 24.5206C27.0771 25.1157 26.9474 25.8149 27.0662 26.4947C27.1849 27.1746 27.5445 27.7913 28.0813 28.236C28.6182 28.6807 29.2977 28.9248 30 28.9251ZM30 25.0251C30.1963 25.0251 30.3882 25.0822 30.5515 25.1894C30.7147 25.2965 30.842 25.4488 30.9171 25.6269C30.9922 25.8051 31.0119 26.0011 30.9736 26.1903C30.9353 26.3794 30.8407 26.5531 30.7019 26.6895C30.5631 26.8258 30.3862 26.9187 30.1937 26.9563C30.0011 26.9939 29.8015 26.9746 29.6201 26.9008C29.4388 26.827 29.2837 26.7021 29.1746 26.5417C29.0656 26.3814 29.0074 26.1929 29.0074 26.0001C29.0077 25.7416 29.1123 25.4937 29.2984 25.311C29.4845 25.1282 29.7368 25.0254 30 25.0251Z" fill="white"/>
</svg>
