<svg width="60" height="60" viewBox="0 0 60 60" fill="none" xmlns="http://www.w3.org/2000/svg">
<path d="M59 27H52V21C52 20.4478 51.5522 20 51 20H31V12H38C38.5522 12 39 11.5522 39 11V1C39 0.44775 38.5522 0 38 0H22C21.4478 0 21 0.44775 21 1V11C21 11.5522 21.4478 12 22 12H29V20H9C8.44775 20 8 20.4478 8 21V27H1C0.44775 27 0 27.4478 0 28V38C0 38.5522 0.44775 39 1 39H17C17.5522 39 18 38.5522 18 38V28C18 27.4478 17.5522 27 17 27H10V22H29V27H22C21.4478 27 21 27.4478 21 28V38C21 38.5522 21.4478 39 22 39H29V48H22C21.4478 48 21 48.4478 21 49V59C21 59.5522 21.4478 60 22 60H38C38.5522 60 39 59.5522 39 59V49C39 48.4478 38.5522 48 38 48H31V39H38C38.5522 39 39 38.5522 39 38V28C39 27.4478 38.5522 27 38 27H31V22H50V27H43C42.4478 27 42 27.4478 42 28V38C42 38.5522 42.4478 39 43 39H59C59.5522 39 60 38.5522 60 38V28C60 27.4478 59.5522 27 59 27ZM16 29V37H2V29H16ZM37 50V58H23V50H37ZM37 29V37H23V29H37ZM23 10V2H37V10H23ZM58 37H44V29H58V37Z" fill="white"/>
</svg>
