<svg width="60" height="60" viewBox="0 0 60 60" fill="none" xmlns="http://www.w3.org/2000/svg">
<g clip-path="url(#clip0)">
<path d="M30 57.5C29.68 57.5 29.36 57.3775 29.115 57.135L16.615 44.635C16.2575 44.2775 16.15 43.74 16.345 43.2725C16.54 42.805 16.995 42.5 17.5 42.5H23.75V30C23.75 28.6225 24.87 27.5 26.25 27.5H33.75C35.13 27.5 36.25 28.6225 36.25 30V42.5H42.5C43.005 42.5 43.4625 42.805 43.655 43.2725C43.8475 43.74 43.74 44.2775 43.385 44.635L30.885 57.135C30.64 57.3775 30.32 57.5 30 57.5ZM20.5175 45L30 54.4825L39.4825 45H35C34.31 45 33.75 44.44 33.75 43.75V30H26.25V43.75C26.25 44.44 25.69 45 25 45H20.5175Z" fill="white"/>
<path d="M11.2525 42.425C11.205 42.425 11.16 42.4225 11.11 42.4175C4.77749 41.715 -7.62939e-06 36.375 -7.62939e-06 30C-7.62939e-06 23.395 5.14749 17.9725 11.64 17.53C13.37 8.89 21.0825 2.5 30 2.5C37.0025 2.5 43.4525 6.445 46.6325 12.61C54.1875 13.4025 60 19.805 60 27.5C60 34.2 55.51 40.125 49.085 41.905C48.41 42.0875 47.73 41.6975 47.5475 41.0325C47.3625 40.3675 47.7525 39.6775 48.4175 39.495C53.765 38.015 57.5 33.08 57.5 27.5C57.5 20.8825 52.3425 15.4125 45.7575 15.0475C45.295 15.0225 44.8875 14.745 44.6925 14.3275C42.0475 8.6625 36.2825 5 30 5C21.9625 5 15.0575 10.9875 13.9375 18.925C13.85 19.54 13.3225 20 12.7 20C6.98499 20 2.49999 24.485 2.49999 30C2.49999 35.1 6.31999 39.37 11.39 39.9325C12.075 40.01 12.57 40.6275 12.4925 41.3125C12.4225 41.9525 11.88 42.425 11.2525 42.425Z" fill="white"/>
</g>
<defs>
<clipPath id="clip0">
<rect width="60" height="60" fill="white"/>
</clipPath>
</defs>
</svg>
